<svg xmlns="http://www.w3.org/2000/svg" viewBox="0 0 1080 1080" role="img" aria-label="IRC pixel light chat wallpaper pattern">
  <rect width="1080" height="1080" fill="#fffaf0"/>
  <g opacity=".64">
    <g fill="#93a3c7">
      <rect x="94" y="94" width="18" height="18"/><rect x="112" y="94" width="18" height="18"/><rect x="148" y="94" width="18" height="18"/><rect x="166" y="94" width="18" height="18"/><rect x="112" y="112" width="18" height="18"/><rect x="148" y="112" width="18" height="18"/><rect x="94" y="130" width="18" height="18"/><rect x="112" y="130" width="18" height="18"/><rect x="148" y="130" width="18" height="18"/><rect x="166" y="130" width="18" height="18"/>
      <rect x="852" y="182" width="18" height="18"/><rect x="870" y="200" width="18" height="18"/><rect x="888" y="218" width="54" height="18"/>
      <rect x="214" y="382" width="72" height="18"/><rect x="214" y="418" width="72" height="18"/><rect x="232" y="364" width="18" height="90"/><rect x="268" y="364" width="18" height="90"/>
      <rect x="748" y="390" width="18" height="72"/><rect x="766" y="390" width="54" height="18"/><rect x="820" y="408" width="18" height="36"/><rect x="766" y="444" width="54" height="18"/>
      <rect x="110" y="776" width="18" height="18"/><rect x="128" y="794" width="18" height="18"/><rect x="146" y="812" width="54" height="18"/>
      <rect x="420" y="828" width="18" height="18"/><rect x="438" y="846" width="18" height="18"/><rect x="456" y="864" width="18" height="18"/><rect x="474" y="882" width="72" height="18"/>
    </g>
    <g fill="#5b6ee1">
      <rect x="380" y="116" width="18" height="18"/><rect x="416" y="116" width="18" height="18"/><rect x="452" y="116" width="18" height="18"/>
      <rect x="602" y="264" width="18" height="18"/><rect x="638" y="264" width="18" height="18"/><rect x="674" y="264" width="18" height="18"/>
      <rect x="314" y="602" width="18" height="18"/><rect x="350" y="602" width="18" height="18"/><rect x="386" y="602" width="18" height="18"/>
      <rect x="788" y="908" width="18" height="18"/><rect x="824" y="908" width="18" height="18"/><rect x="860" y="908" width="18" height="18"/>
    </g>
    <g fill="#55cbb2">
      <rect x="616" y="116" width="18" height="18"/><rect x="634" y="134" width="18" height="18"/><rect x="652" y="152" width="18" height="18"/>
      <rect x="102" y="556" width="18" height="18"/><rect x="120" y="556" width="18" height="18"/><rect x="138" y="556" width="18" height="18"/>
      <rect x="904" y="614" width="18" height="18"/><rect x="922" y="632" width="18" height="18"/><rect x="940" y="650" width="18" height="18"/>
    </g>
  </g>
  <g fill="none" stroke="#93a3c7" stroke-width="6" stroke-linecap="square" stroke-linejoin="miter" opacity=".58">
    <path d="M348 300h94v58h-58l-36 30v-30h-30v-28"/>
    <path d="M560 496h82v72h-82zM582 496v-26h38v26"/>
    <path d="M833 496h100v68h-100zM858 522h24m24 0h2m-50 18h50"/>
    <path d="M256 934h84m-70-42-28 126m126-126-28 126"/>
    <path d="M628 768h86m-70-42-28 126m126-126-28 126"/>
    <path d="M896 842c28-34 58-34 88 0s60 34 88 0"/>
  </g>
</svg>
