<svg xmlns="http://www.w3.org/2000/svg" viewBox="0 0 1080 1080" role="img" aria-label="IRC network light chat wallpaper pattern">
  <rect width="1080" height="1080" fill="#f8fbff"/>
  <g fill="#dfe6f6" opacity=".48">
    <circle cx="80" cy="80" r="3"/><circle cx="160" cy="80" r="3"/><circle cx="240" cy="80" r="3"/><circle cx="320" cy="80" r="3"/><circle cx="400" cy="80" r="3"/><circle cx="480" cy="80" r="3"/><circle cx="560" cy="80" r="3"/><circle cx="640" cy="80" r="3"/><circle cx="720" cy="80" r="3"/><circle cx="800" cy="80" r="3"/><circle cx="880" cy="80" r="3"/><circle cx="960" cy="80" r="3"/>
    <circle cx="80" cy="240" r="3"/><circle cx="160" cy="240" r="3"/><circle cx="240" cy="240" r="3"/><circle cx="320" cy="240" r="3"/><circle cx="400" cy="240" r="3"/><circle cx="480" cy="240" r="3"/><circle cx="560" cy="240" r="3"/><circle cx="640" cy="240" r="3"/><circle cx="720" cy="240" r="3"/><circle cx="800" cy="240" r="3"/><circle cx="880" cy="240" r="3"/><circle cx="960" cy="240" r="3"/>
    <circle cx="80" cy="400" r="3"/><circle cx="160" cy="400" r="3"/><circle cx="240" cy="400" r="3"/><circle cx="320" cy="400" r="3"/><circle cx="400" cy="400" r="3"/><circle cx="480" cy="400" r="3"/><circle cx="560" cy="400" r="3"/><circle cx="640" cy="400" r="3"/><circle cx="720" cy="400" r="3"/><circle cx="800" cy="400" r="3"/><circle cx="880" cy="400" r="3"/><circle cx="960" cy="400" r="3"/>
    <circle cx="80" cy="560" r="3"/><circle cx="160" cy="560" r="3"/><circle cx="240" cy="560" r="3"/><circle cx="320" cy="560" r="3"/><circle cx="400" cy="560" r="3"/><circle cx="480" cy="560" r="3"/><circle cx="560" cy="560" r="3"/><circle cx="640" cy="560" r="3"/><circle cx="720" cy="560" r="3"/><circle cx="800" cy="560" r="3"/><circle cx="880" cy="560" r="3"/><circle cx="960" cy="560" r="3"/>
    <circle cx="80" cy="720" r="3"/><circle cx="160" cy="720" r="3"/><circle cx="240" cy="720" r="3"/><circle cx="320" cy="720" r="3"/><circle cx="400" cy="720" r="3"/><circle cx="480" cy="720" r="3"/><circle cx="560" cy="720" r="3"/><circle cx="640" cy="720" r="3"/><circle cx="720" cy="720" r="3"/><circle cx="800" cy="720" r="3"/><circle cx="880" cy="720" r="3"/><circle cx="960" cy="720" r="3"/>
    <circle cx="80" cy="880" r="3"/><circle cx="160" cy="880" r="3"/><circle cx="240" cy="880" r="3"/><circle cx="320" cy="880" r="3"/><circle cx="400" cy="880" r="3"/><circle cx="480" cy="880" r="3"/><circle cx="560" cy="880" r="3"/><circle cx="640" cy="880" r="3"/><circle cx="720" cy="880" r="3"/><circle cx="800" cy="880" r="3"/><circle cx="880" cy="880" r="3"/><circle cx="960" cy="880" r="3"/>
  </g>
  <g fill="none" stroke="#a79fe3" stroke-width="4" stroke-linecap="round" stroke-dasharray="8 16" opacity=".52">
    <path d="M124 144 286 244 460 168 664 286 872 182 1012 318"/>
    <path d="M80 590 246 464 438 618 640 492 806 662 1010 542"/>
    <path d="M134 930 312 780 510 900 700 766 926 894"/>
  </g>
  <g fill="none" stroke="#8fa6d8" stroke-width="5" stroke-linecap="round" stroke-linejoin="round" opacity=".66">
    <path d="M222 172h70a18 18 0 0 1 18 18v38a18 18 0 0 1-18 18h-34l-28 24v-24h-8a18 18 0 0 1-18-18v-38a18 18 0 0 1 18-18z"/>
    <path d="M540 112h72m-58-34-26 104m110-104-26 104"/>
    <path d="M870 106h76a18 18 0 0 1 18 18v54a18 18 0 0 1-18 18h-76a18 18 0 0 1-18-18v-54a18 18 0 0 1 18-18zm16 27h44m-44 30h44"/>
    <path d="M143 412a38 38 0 1 0 0 76 38 38 0 0 0 0-76zm0 38h116m-58-58c24 36 24 80 0 116m0-116c-24 36-24 80 0 116"/>
    <path d="M414 400h52a20 20 0 0 1 20 20v46a20 20 0 0 1-20 20h-52a20 20 0 0 1-20-20v-46a20 20 0 0 1 20-20zm26-42v42"/>
    <path d="M696 394l25 25-25 25m42 0h42"/>
    <path d="M900 404h72m-58-34-26 104m110-104-26 104"/>
    <path d="M224 716h74a18 18 0 0 1 18 18v38a18 18 0 0 1-18 18h-74a18 18 0 0 1-18-18v-38a18 18 0 0 1 18-18z"/>
    <path d="M564 710h82a20 20 0 0 1 20 20v44a20 20 0 0 1-20 20h-82a20 20 0 0 1-20-20v-44a20 20 0 0 1 20-20z"/>
    <path d="M860 714h46a32 32 0 0 1 0 64h-46a32 32 0 0 1 0-64zm46 0h46a32 32 0 0 1 0 64h-46"/>
  </g>
  <g fill="#5b6ee1" opacity=".7">
    <circle cx="124" cy="144" r="10"/><circle cx="460" cy="168" r="10"/><circle cx="872" cy="182" r="10"/><circle cx="438" cy="618" r="10"/><circle cx="806" cy="662" r="10"/><circle cx="700" cy="766" r="10"/>
  </g>
  <g fill="#55cbb2" opacity=".72">
    <circle cx="286" cy="244" r="9"/><circle cx="664" cy="286" r="9"/><circle cx="246" cy="464" r="9"/><circle cx="640" cy="492" r="9"/><circle cx="312" cy="780" r="9"/><circle cx="926" cy="894" r="9"/>
  </g>
</svg>
