<svg xmlns="http://www.w3.org/2000/svg" viewBox="0 0 1080 1080" role="img" aria-label="IRC network dark chat wallpaper pattern">
  <rect width="1080" height="1080" fill="#070b12"/>
  <g fill="none" stroke="#53617e" stroke-width="4" stroke-linecap="round" opacity=".56">
    <path d="M92 180 246 116 410 218 574 118 746 206 930 126"/>
    <path d="M160 492 318 398 488 506 650 410 828 510 994 414"/>
    <path d="M82 836 248 746 414 852 584 744 762 850 946 758"/>
  </g>
  <g fill="none" stroke="#5d6d8b" stroke-width="5" stroke-linecap="round" stroke-linejoin="round" opacity=".72">
    <path d="M56 145h72a18 18 0 0 1 18 18v42a18 18 0 0 1-18 18H92l-28 22v-22h-8a18 18 0 0 1-18-18v-42a18 18 0 0 1 18-18z"/>
    <path d="M256 76 238 154m78-78-18 78m-72-50h102m-108 28h102"/>
    <path d="M376 184h38a28 28 0 0 1 0 56h-38a28 28 0 0 1 0-56zm38 0h38a28 28 0 0 1 0 56h-38m-18-28h36"/>
    <path d="M536 166h76v70h-76zm18 0v-20a20 20 0 0 1 40 0v20m-20 29v16"/>
    <path d="M704 166h86v72h-86zm18 24h50m-50 24h50"/>
    <path d="M898 86h82a18 18 0 0 1 18 18v48a18 18 0 0 1-18 18h-82a18 18 0 0 1-18-18v-48a18 18 0 0 1 18-18zm20 31h42m-42 24h26"/>
    <path d="M118 442a46 46 0 1 0 0 92 46 46 0 0 0 0-92zm-44 46h88m-44-44c17 27 17 61 0 88m0-88c-17 27-17 61 0 88"/>
    <path d="m278 374 28 28-28 28m48 0h48"/>
    <path d="M446 464h84l26 26v58H446zm84 0v26h26m-86 27h54"/>
    <path d="M610 370h80v78h-80zM628 396h44m-44 27h26"/>
    <path d="M786 476h42a28 28 0 0 1 0 56h-42a28 28 0 0 1 0-56zm42 0h42a28 28 0 0 1 0 56h-42"/>
    <path d="M974 362 956 440m78-78-18 78m-72-50h102m-108 28h102"/>
    <path d="M46 796h82a18 18 0 0 1 18 18v40a18 18 0 0 1-18 18H92l-28 22v-22H46a18 18 0 0 1-18-18v-40a18 18 0 0 1 18-18z"/>
    <path d="M204 706h88v76h-88zm18 25h52m-52 26h52"/>
    <path d="M376 810h76v70h-76zm18 0v-20a20 20 0 0 1 40 0v20m-20 28v17"/>
    <path d="m544 714 30 30 62-62m-32 32 26 26 48-48"/>
    <path d="M718 812h38a28 28 0 0 1 0 56h-38a28 28 0 0 1 0-56zm38 0h38a28 28 0 0 1 0 56h-38m-18-28h36"/>
    <path d="M904 716h82a18 18 0 0 1 18 18v42a18 18 0 0 1-18 18h-82a18 18 0 0 1-18-18v-42a18 18 0 0 1 18-18zm20 30h42"/>
  </g>
</svg>
