<svg xmlns="http://www.w3.org/2000/svg" viewBox="0 0 1080 1080" role="img" aria-label="IRC pixel light chat wallpaper pattern" shape-rendering="crispEdges">
  <rect width="1080" height="1080" fill="#f8f9fc"/>
  <g fill="#8795b4" opacity=".62">
    <!-- Channel -->
    <rect x="72" y="72" width="16" height="96"/><rect x="120" y="72" width="16" height="96"/><rect x="48" y="96" width="112" height="16"/><rect x="48" y="136" width="112" height="16"/>
    <!-- Conversation -->
    <rect x="304" y="72" width="112" height="16"/><rect x="288" y="88" width="16" height="64"/><rect x="416" y="88" width="16" height="64"/><rect x="304" y="152" width="48" height="16"/><rect x="384" y="152" width="32" height="16"/><rect x="352" y="152" width="16" height="32"/><rect x="336" y="168" width="16" height="32"/>
    <!-- Prompt -->
    <rect x="614" y="88" width="16" height="16"/><rect x="630" y="104" width="16" height="16"/><rect x="614" y="120" width="16" height="16"/><rect x="662" y="136" width="64" height="16"/>
    <!-- Server -->
    <rect x="856" y="72" width="112" height="16"/><rect x="840" y="88" width="16" height="96"/><rect x="968" y="88" width="16" height="96"/><rect x="856" y="184" width="112" height="16"/><rect x="872" y="104" width="56" height="16"/><rect x="872" y="152" width="56" height="16"/>

    <!-- Lock -->
    <rect x="128" y="328" width="112" height="16"/><rect x="112" y="344" width="16" height="80"/><rect x="240" y="344" width="16" height="80"/><rect x="128" y="424" width="112" height="16"/><rect x="144" y="296" width="16" height="32"/><rect x="208" y="296" width="16" height="32"/><rect x="160" y="280" width="48" height="16"/><rect x="176" y="360" width="16" height="32"/>
    <!-- Channel list -->
    <rect x="416" y="304" width="16" height="16"/><rect x="448" y="304" width="96" height="16"/><rect x="416" y="352" width="16" height="16"/><rect x="448" y="352" width="64" height="16"/><rect x="416" y="400" width="16" height="16"/><rect x="448" y="400" width="96" height="16"/>
    <!-- Bouncer -->
    <rect x="744" y="320" width="64" height="16"/><rect x="728" y="336" width="16" height="48"/><rect x="744" y="384" width="64" height="16"/><rect x="808" y="336" width="32" height="16"/><rect x="808" y="368" width="32" height="16"/><rect x="840" y="320" width="64" height="16"/><rect x="904" y="336" width="16" height="48"/><rect x="840" y="384" width="64" height="16"/><rect x="792" y="352" width="64" height="16"/>

    <!-- Network globe -->
    <rect x="64" y="576" width="16" height="64"/><rect x="80" y="560" width="32" height="16"/><rect x="112" y="544" width="48" height="16"/><rect x="160" y="560" width="32" height="16"/><rect x="192" y="576" width="16" height="64"/><rect x="80" y="640" width="32" height="16"/><rect x="112" y="656" width="48" height="16"/><rect x="160" y="640" width="32" height="16"/><rect x="64" y="600" width="144" height="16"/><rect x="128" y="544" width="16" height="128"/>
    <!-- Read shield -->
    <rect x="352" y="544" width="96" height="16"/><rect x="336" y="560" width="16" height="80"/><rect x="448" y="560" width="16" height="80"/><rect x="352" y="640" width="16" height="16"/><rect x="432" y="640" width="16" height="16"/><rect x="368" y="656" width="16" height="16"/><rect x="416" y="656" width="16" height="16"/><rect x="384" y="672" width="32" height="16"/>
    <!-- MOTD document -->
    <rect x="608" y="544" width="80" height="16"/><rect x="592" y="560" width="16" height="112"/><rect x="688" y="560" width="16" height="112"/><rect x="608" y="672" width="80" height="16"/><rect x="688" y="560" width="32" height="16"/><rect x="704" y="576" width="16" height="32"/><rect x="624" y="608" width="48" height="16"/><rect x="624" y="640" width="64" height="16"/>
    <!-- Terminal -->
    <rect x="856" y="560" width="128" height="16"/><rect x="840" y="576" width="16" height="96"/><rect x="984" y="576" width="16" height="96"/><rect x="856" y="672" width="128" height="16"/><rect x="880" y="608" width="16" height="16"/><rect x="896" y="624" width="16" height="16"/><rect x="880" y="640" width="16" height="16"/><rect x="928" y="640" width="32" height="16"/>

    <!-- Mention -->
    <rect x="64" y="848" width="16" height="64"/><rect x="80" y="832" width="80" height="16"/><rect x="160" y="848" width="16" height="64"/><rect x="80" y="912" width="48" height="16"/><rect x="112" y="864" width="32" height="16"/><rect x="96" y="880" width="16" height="32"/><rect x="144" y="880" width="16" height="32"/>
    <!-- Reply -->
    <rect x="352" y="824" width="128" height="16"/><rect x="336" y="840" width="16" height="80"/><rect x="480" y="840" width="16" height="80"/><rect x="352" y="920" width="48" height="16"/><rect x="448" y="920" width="32" height="16"/><rect x="400" y="920" width="16" height="32"/><rect x="384" y="936" width="16" height="32"/><rect x="376" y="872" width="80" height="16"/>
    <!-- Secure channel -->
    <rect x="640" y="848" width="112" height="16"/><rect x="624" y="864" width="16" height="80"/><rect x="752" y="864" width="16" height="80"/><rect x="640" y="944" width="112" height="16"/><rect x="656" y="816" width="16" height="32"/><rect x="720" y="816" width="16" height="32"/><rect x="672" y="800" width="48" height="16"/><rect x="688" y="880" width="16" height="32"/>
    <!-- Network nodes -->
    <rect x="872" y="832" width="16" height="16"/><rect x="920" y="800" width="16" height="16"/><rect x="968" y="848" width="16" height="16"/><rect x="904" y="896" width="16" height="16"/><rect x="952" y="928" width="16" height="16"/><rect x="888" y="816" width="32" height="16"/><rect x="936" y="816" width="32" height="16"/><rect x="888" y="848" width="80" height="16"/><rect x="920" y="880" width="32" height="16"/><rect x="920" y="912" width="32" height="16"/>
  </g>
  <g fill="#5b6ee1" opacity=".72">
    <rect x="368" y="112" width="16" height="16"/><rect x="448" y="304" width="96" height="16"/><rect x="368" y="608" width="16" height="16"/><rect x="384" y="624" width="16" height="16"/><rect x="400" y="608" width="32" height="16"/><rect x="880" y="608" width="16" height="16"/><rect x="896" y="624" width="16" height="16"/>
  </g>
  <g fill="#36bda2" opacity=".78">
    <rect x="944" y="104" width="16" height="16"/><rect x="176" y="360" width="16" height="16"/><rect x="808" y="352" width="32" height="16"/><rect x="688" y="880" width="16" height="16"/><rect x="920" y="800" width="16" height="16"/><rect x="952" y="928" width="16" height="16"/>
  </g>
</svg>
