<svg xmlns="http://www.w3.org/2000/svg" viewBox="0 0 312 112" role="img" aria-labelledby="title">
  <title id="title">/motd</title>
  <!-- IBM Plex Mono Bold Italic 700, converted to outlines; see README.md. -->
  <g fill="#5266E8" transform="translate(4 91) scale(.1 -.1)">
    <path d="M1-138 465 760H599L135-138Z"/>
    <path transform="translate(600)" d="M-12 0 74 516H192L177 426H183Q200 471 228 499.5T297 528Q337 528 358.5 502.5T375 426H380Q389 448 401 466.5T428 498.5Q443 512 461.5 520T504 528Q592 528 592 432Q592 415 590 394.5T585 356L526 0H408L465 341Q467 350 468 361T469 382Q469 400 461.5 410.5T440 421Q427 421 415.5 414.5T393 389Q384 374 378.5 356.5T368 312L316 0H198L255 341Q257 350 258 361T259 383Q259 421 230 421Q219 421 207.5 415T184 389Q173 372 167.5 355T160 324L106 0Z"/>
    <path transform="translate(1200)" d="M265-12Q159-12 101 47.5T43 210Q43 284 64.5 343T124.5 443Q163 484 216.5 506T335 528Q441 528 499 468.5T557 306Q557 232 535.5 173T475.5 73Q437 32 383.5 10T265-12ZM276 97Q324 97 354.5 126T394 209L407 287Q409 296 410.5 307.5T412 328Q412 374 388.5 396.5T324 419Q276 419 245.5 390T206 307L193 229Q191 220 189.5 208.5T188 188Q188 142 211.5 119.5T276 97Z"/>
    <path transform="translate(1800)" d="M278-12Q212-12 181.5 23T151 116Q151 130 152.5 144.5T158 182L195 402H63L82 516H165Q197 516 213.5 529T235 576L255 698H391L361 516H563L544 402H342L294 114L314 107L470 230L542 148L482 96Q450 69 424 48.5T374.5 14.5Q351 1 328-5.5T278-12Z"/>
    <path transform="translate(2400)" d="M367 123H362Q347 93 330.5 68.5T293.5 26Q273 8 247.5-2T189-12Q148-12 119.5 2T73 42.5Q55 69 46.5 106T38 188Q38 265 55 327.5T103 434.5Q134 479 177.5 503.5T275 528Q336 528 367.5 499.5T410 420H417L470 740H616L493 0H347ZM254 101Q281 101 302 114T341 150Q353 164 368 189.5T388 247L402 330Q409 371 389.5 393T322 415Q268 415 239 383.5T200 293L190 233Q188 224 187 212.5T186 188Q187 151 201.5 126T254 101Z"/>
  </g>
</svg>
