<?xml version="1.0" encoding="UTF-8"?>
<svg xmlns="http://www.w3.org/2000/svg" viewBox="0 0 512 512">
  <path d="M8 12h48a7 7 0 0 1 7 7v25a7 7 0 0 1-7 7H34L20 61V51H8a7 7 0 0 1-7-7V19a7 7 0 0 1 7-7z" transform="translate(35 34) rotate(-6 32 32) scale(0.9)" fill="none" stroke="#000000" stroke-width="4" stroke-linecap="round" stroke-linejoin="round" stroke-opacity="0.66"/>
  <path d="M14 27h35M14 37h24" transform="translate(35 34) rotate(-6 32 32) scale(0.9)" fill="none" stroke="#000000" stroke-width="4" stroke-linecap="round" stroke-linejoin="round" stroke-opacity="0.66"/>
  <path d="M27 12 8 30l19 18M9 30h25c15 0 22 8 22 22" transform="translate(180 28) rotate(8 32 32) scale(0.75)" fill="none" stroke="#000000" stroke-width="4" stroke-linecap="round" stroke-linejoin="round" stroke-opacity="0.5"/>
  <path d="M10 32h44" transform="translate(330 38) rotate(-4 32 32) scale(0.8)" fill="none" stroke="#000000" stroke-width="4" stroke-linecap="round" stroke-linejoin="round" stroke-opacity="0.66"/>
  <path d="M18 32h.1M32 32h.1M46 32h.1" transform="translate(330 38) rotate(-4 32 32) scale(0.8)" fill="none" stroke="#000000" stroke-width="4" stroke-linecap="round" stroke-linejoin="round" stroke-opacity="0.66"/>
  <path d="M51 47c-10 11-34 7-38-10C8 21 18 8 34 8c15 0 25 11 23 26-1 10-14 15-18 7V21m0 20c-12 8-23-5-15-16 7-9 20-2 15 8" transform="translate(-22 145) rotate(8 32 32) scale(0.9)" fill="none" stroke="#000000" stroke-width="4" stroke-linecap="round" stroke-linejoin="round" stroke-opacity="0.66"/>
  <path d="M51 47c-10 11-34 7-38-10C8 21 18 8 34 8c15 0 25 11 23 26-1 10-14 15-18 7V21m0 20c-12 8-23-5-15-16 7-9 20-2 15 8" transform="translate(490 145) rotate(8 32 32) scale(0.9)" fill="none" stroke="#000000" stroke-width="4" stroke-linecap="round" stroke-linejoin="round" stroke-opacity="0.66"/>
  <path d="M8 12h48a7 7 0 0 1 7 7v25a7 7 0 0 1-7 7H34L20 61V51H8a7 7 0 0 1-7-7V19a7 7 0 0 1 7-7z" transform="translate(125 145) rotate(4 32 32) scale(0.72)" fill="none" stroke="#000000" stroke-width="4" stroke-linecap="round" stroke-linejoin="round" stroke-opacity="0.52"/>
  <path d="M14 27h35M14 37h24" transform="translate(125 145) rotate(4 32 32) scale(0.72)" fill="none" stroke="#000000" stroke-width="4" stroke-linecap="round" stroke-linejoin="round" stroke-opacity="0.52"/>
  <path d="M10 32h44" transform="translate(275 155) rotate(8 32 32) scale(0.64)" fill="none" stroke="#000000" stroke-width="4" stroke-linecap="round" stroke-linejoin="round" stroke-opacity="0.66"/>
  <path d="M18 32h.1M32 32h.1M46 32h.1" transform="translate(275 155) rotate(8 32 32) scale(0.64)" fill="none" stroke="#000000" stroke-width="4" stroke-linecap="round" stroke-linejoin="round" stroke-opacity="0.66"/>
  <path d="M27 12 8 30l19 18M9 30h25c15 0 22 8 22 22" transform="translate(410 150) rotate(-7 32 32) scale(0.82)" fill="none" stroke="#000000" stroke-width="4" stroke-linecap="round" stroke-linejoin="round" stroke-opacity="0.66"/>
  <path d="M22 8 14 56M46 8l-8 48M8 24h48M6 42h48" transform="translate(55 295) rotate(-5 32 32) scale(0.66)" fill="none" stroke="#000000" stroke-width="4" stroke-linecap="round" stroke-linejoin="round" stroke-opacity="0.52"/>
  <path d="M8 12h48a7 7 0 0 1 7 7v25a7 7 0 0 1-7 7H34L20 61V51H8a7 7 0 0 1-7-7V19a7 7 0 0 1 7-7z" transform="translate(195 278) rotate(7 32 32) scale(0.92)" fill="none" stroke="#000000" stroke-width="4" stroke-linecap="round" stroke-linejoin="round" stroke-opacity="0.66"/>
  <path d="M14 27h35M14 37h24" transform="translate(195 278) rotate(7 32 32) scale(0.92)" fill="none" stroke="#000000" stroke-width="4" stroke-linecap="round" stroke-linejoin="round" stroke-opacity="0.66"/>
  <path d="M51 47c-10 11-34 7-38-10C8 21 18 8 34 8c15 0 25 11 23 26-1 10-14 15-18 7V21m0 20c-12 8-23-5-15-16 7-9 20-2 15 8" transform="translate(355 292) rotate(-8 32 32) scale(0.72)" fill="none" stroke="#000000" stroke-width="4" stroke-linecap="round" stroke-linejoin="round" stroke-opacity="0.52"/>
  <path d="M27 12 8 30l19 18M9 30h25c15 0 22 8 22 22" transform="translate(-18 425) rotate(-4 32 32) scale(0.78)" fill="none" stroke="#000000" stroke-width="4" stroke-linecap="round" stroke-linejoin="round" stroke-opacity="0.66"/>
  <path d="M27 12 8 30l19 18M9 30h25c15 0 22 8 22 22" transform="translate(494 425) rotate(-4 32 32) scale(0.78)" fill="none" stroke="#000000" stroke-width="4" stroke-linecap="round" stroke-linejoin="round" stroke-opacity="0.66"/>
  <path d="M10 32h44" transform="translate(145 425) rotate(4 32 32) scale(0.75)" fill="none" stroke="#000000" stroke-width="4" stroke-linecap="round" stroke-linejoin="round" stroke-opacity="0.66"/>
  <path d="M18 32h.1M32 32h.1M46 32h.1" transform="translate(145 425) rotate(4 32 32) scale(0.75)" fill="none" stroke="#000000" stroke-width="4" stroke-linecap="round" stroke-linejoin="round" stroke-opacity="0.66"/>
  <path d="M8 12h48a7 7 0 0 1 7 7v25a7 7 0 0 1-7 7H34L20 61V51H8a7 7 0 0 1-7-7V19a7 7 0 0 1 7-7z" transform="translate(300 410) rotate(-6 32 32) scale(0.78)" fill="none" stroke="#000000" stroke-width="4" stroke-linecap="round" stroke-linejoin="round" stroke-opacity="0.66"/>
  <path d="M14 27h35M14 37h24" transform="translate(300 410) rotate(-6 32 32) scale(0.78)" fill="none" stroke="#000000" stroke-width="4" stroke-linecap="round" stroke-linejoin="round" stroke-opacity="0.66"/>
  <path d="M22 8 14 56M46 8l-8 48M8 24h48M6 42h48" transform="translate(430 412) rotate(7 32 32) scale(0.62)" fill="none" stroke="#000000" stroke-width="4" stroke-linecap="round" stroke-linejoin="round" stroke-opacity="0.5"/>
</svg>
