<?xml version="1.0" encoding="UTF-8"?>
<svg xmlns="http://www.w3.org/2000/svg" viewBox="0 0 512 512">
  <path d="M8 8h16v8H16v8H8zm32 0h16v16h-8v-8h-8zM8 40h8v8h8v8H8zm32 8h8v-8h8v16H40zM24 28h16v8H24z" transform="translate(35 28) rotate(0 32 32) scale(0.9)" fill="none" stroke="#000000" stroke-width="4" stroke-linecap="round" stroke-linejoin="round" stroke-opacity="0.66"/>
  <path d="M5 8h54v48H5zM5 19h54M12 14h.1M20 14h.1M28 14h.1M13 30l9 8-9 8M27 46h16" transform="translate(182 30) rotate(0 32 32) scale(0.65)" fill="none" stroke="#000000" stroke-width="4" stroke-linecap="round" stroke-linejoin="round" stroke-opacity="0.5"/>
  <path d="M8 8h16v8H16v8H8zm32 0h16v16h-8v-8h-8zM8 40h8v8h8v8H8zm32 8h8v-8h8v16H40zM24 28h16v8H24z" transform="translate(340 28) rotate(0 32 32) scale(0.8)" fill="none" stroke="#000000" stroke-width="4" stroke-linecap="round" stroke-linejoin="round" stroke-opacity="0.66"/>
  <path d="M8 8h16v8H16v8H8zm32 0h16v16h-8v-8h-8zM8 40h8v8h8v8H8zm32 8h8v-8h8v16H40zM24 28h16v8H24z" transform="translate(-24 158) rotate(0 32 32) scale(0.82)" fill="none" stroke="#000000" stroke-width="4" stroke-linecap="round" stroke-linejoin="round" stroke-opacity="0.66"/>
  <path d="M8 8h16v8H16v8H8zm32 0h16v16h-8v-8h-8zM8 40h8v8h8v8H8zm32 8h8v-8h8v16H40zM24 28h16v8H24z" transform="translate(488 158) rotate(0 32 32) scale(0.82)" fill="none" stroke="#000000" stroke-width="4" stroke-linecap="round" stroke-linejoin="round" stroke-opacity="0.66"/>
  <path d="M11 14 31 32 11 50M34 50h22" transform="translate(128 155) rotate(0 32 32) scale(0.68)" fill="none" stroke="#000000" stroke-width="4" stroke-linecap="round" stroke-linejoin="round" stroke-opacity="0.52"/>
  <path d="M8 8h16v8H16v8H8zm32 0h16v16h-8v-8h-8zM8 40h8v8h8v8H8zm32 8h8v-8h8v16H40zM24 28h16v8H24z" transform="translate(275 150) rotate(0 32 32) scale(0.9)" fill="none" stroke="#000000" stroke-width="4" stroke-linecap="round" stroke-linejoin="round" stroke-opacity="0.66"/>
  <path d="M5 8h54v48H5zM5 19h54M12 14h.1M20 14h.1M28 14h.1M13 30l9 8-9 8M27 46h16" transform="translate(414 150) rotate(0 32 32) scale(0.6)" fill="none" stroke="#000000" stroke-width="4" stroke-linecap="round" stroke-linejoin="round" stroke-opacity="0.5"/>
  <path d="M8 8h16v8H16v8H8zm32 0h16v16h-8v-8h-8zM8 40h8v8h8v8H8zm32 8h8v-8h8v16H40zM24 28h16v8H24z" transform="translate(48 288) rotate(0 32 32) scale(0.86)" fill="none" stroke="#000000" stroke-width="4" stroke-linecap="round" stroke-linejoin="round" stroke-opacity="0.66"/>
  <path d="M5 8h54v48H5zM5 19h54M12 14h.1M20 14h.1M28 14h.1M13 30l9 8-9 8M27 46h16" transform="translate(190 278) rotate(0 32 32) scale(0.66)" fill="none" stroke="#000000" stroke-width="4" stroke-linecap="round" stroke-linejoin="round" stroke-opacity="0.5"/>
  <path d="M8 8h16v8H16v8H8zm32 0h16v16h-8v-8h-8zM8 40h8v8h8v8H8zm32 8h8v-8h8v16H40zM24 28h16v8H24z" transform="translate(350 290) rotate(0 32 32) scale(0.8)" fill="none" stroke="#000000" stroke-width="4" stroke-linecap="round" stroke-linejoin="round" stroke-opacity="0.66"/>
  <path d="M8 8h16v8H16v8H8zm32 0h16v16h-8v-8h-8zM8 40h8v8h8v8H8zm32 8h8v-8h8v16H40zM24 28h16v8H24z" transform="translate(-22 420) rotate(0 32 32) scale(0.82)" fill="none" stroke="#000000" stroke-width="4" stroke-linecap="round" stroke-linejoin="round" stroke-opacity="0.66"/>
  <path d="M8 8h16v8H16v8H8zm32 0h16v16h-8v-8h-8zM8 40h8v8h8v8H8zm32 8h8v-8h8v16H40zM24 28h16v8H24z" transform="translate(490 420) rotate(0 32 32) scale(0.82)" fill="none" stroke="#000000" stroke-width="4" stroke-linecap="round" stroke-linejoin="round" stroke-opacity="0.66"/>
  <path d="M11 14 31 32 11 50M34 50h22" transform="translate(130 420) rotate(0 32 32) scale(0.7)" fill="none" stroke="#000000" stroke-width="4" stroke-linecap="round" stroke-linejoin="round" stroke-opacity="0.52"/>
  <path d="M8 8h16v8H16v8H8zm32 0h16v16h-8v-8h-8zM8 40h8v8h8v8H8zm32 8h8v-8h8v16H40zM24 28h16v8H24z" transform="translate(280 410) rotate(0 32 32) scale(0.88)" fill="none" stroke="#000000" stroke-width="4" stroke-linecap="round" stroke-linejoin="round" stroke-opacity="0.66"/>
  <path d="M5 8h54v48H5zM5 19h54M12 14h.1M20 14h.1M28 14h.1M13 30l9 8-9 8M27 46h16" transform="translate(420 408) rotate(0 32 32) scale(0.62)" fill="none" stroke="#000000" stroke-width="4" stroke-linecap="round" stroke-linejoin="round" stroke-opacity="0.5"/>
</svg>
