<?xml version="1.0" encoding="UTF-8"?>
<svg xmlns="http://www.w3.org/2000/svg" viewBox="0 0 512 512">
  <path d="M8 9h48v18H8zM8 37h48v18H8zM16 18h.1M16 46h.1M24 18h24M24 46h24" transform="translate(32 28) rotate(-4 32 32) scale(0.8)" fill="none" stroke="#000000" stroke-width="4" stroke-linecap="round" stroke-linejoin="round" stroke-opacity="0.66"/>
  <path d="M24 42H16a12 12 0 0 1 0-24h14a12 12 0 0 1 9 4M40 22h8a12 12 0 0 1 0 24H34a12 12 0 0 1-9-4M20 32h24" transform="translate(180 35) rotate(5 32 32) scale(0.72)" fill="none" stroke="#000000" stroke-width="4" stroke-linecap="round" stroke-linejoin="round" stroke-opacity="0.66"/>
  <path d="M32 5c9 7 18 8 25 8v18c0 15-10 24-25 29C17 55 7 46 7 31V13c8 0 17-1 25-8zM20 32l8 8 17-19" transform="translate(330 26) rotate(-4 32 32) scale(0.78)" fill="none" stroke="#000000" stroke-width="4" stroke-linecap="round" stroke-linejoin="round" stroke-opacity="0.66"/>
  <path d="M11 17a7 7 0 1 0 0-14 7 7 0 0 0 0 14zM53 39a7 7 0 1 0 0-14 7 7 0 0 0 0 14zM15 53a7 7 0 1 0 0-14 7 7 0 0 0 0 14zM17 12l29 18M47 36 21 48M12 46l-1-29" transform="translate(-22 155) rotate(5 32 32) scale(0.72)" fill="none" stroke="#000000" stroke-width="4" stroke-linecap="round" stroke-linejoin="round" stroke-opacity="0.66"/>
  <path d="M11 17a7 7 0 1 0 0-14 7 7 0 0 0 0 14zM53 39a7 7 0 1 0 0-14 7 7 0 0 0 0 14zM15 53a7 7 0 1 0 0-14 7 7 0 0 0 0 14zM17 12l29 18M47 36 21 48M12 46l-1-29" transform="translate(490 155) rotate(5 32 32) scale(0.72)" fill="none" stroke="#000000" stroke-width="4" stroke-linecap="round" stroke-linejoin="round" stroke-opacity="0.66"/>
  <path d="M8 9h48v18H8zM8 37h48v18H8zM16 18h.1M16 46h.1M24 18h24M24 46h24" transform="translate(120 145) rotate(4 32 32) scale(0.72)" fill="none" stroke="#000000" stroke-width="4" stroke-linecap="round" stroke-linejoin="round" stroke-opacity="0.52"/>
  <path d="M24 42H16a12 12 0 0 1 0-24h14a12 12 0 0 1 9 4M40 22h8a12 12 0 0 1 0 24H34a12 12 0 0 1-9-4M20 32h24" transform="translate(268 158) rotate(-5 32 32) scale(0.78)" fill="none" stroke="#000000" stroke-width="4" stroke-linecap="round" stroke-linejoin="round" stroke-opacity="0.66"/>
  <path d="M32 5c9 7 18 8 25 8v18c0 15-10 24-25 29C17 55 7 46 7 31V13c8 0 17-1 25-8zM20 32l8 8 17-19" transform="translate(412 146) rotate(6 32 32) scale(0.68)" fill="none" stroke="#000000" stroke-width="4" stroke-linecap="round" stroke-linejoin="round" stroke-opacity="0.66"/>
  <path d="M11 17a7 7 0 1 0 0-14 7 7 0 0 0 0 14zM53 39a7 7 0 1 0 0-14 7 7 0 0 0 0 14zM15 53a7 7 0 1 0 0-14 7 7 0 0 0 0 14zM17 12l29 18M47 36 21 48M12 46l-1-29" transform="translate(45 285) rotate(-5 32 32) scale(0.78)" fill="none" stroke="#000000" stroke-width="4" stroke-linecap="round" stroke-linejoin="round" stroke-opacity="0.66"/>
  <path d="M8 9h48v18H8zM8 37h48v18H8zM16 18h.1M16 46h.1M24 18h24M24 46h24" transform="translate(190 280) rotate(5 32 32) scale(0.76)" fill="none" stroke="#000000" stroke-width="4" stroke-linecap="round" stroke-linejoin="round" stroke-opacity="0.66"/>
  <path d="M24 42H16a12 12 0 0 1 0-24h14a12 12 0 0 1 9 4M40 22h8a12 12 0 0 1 0 24H34a12 12 0 0 1-9-4M20 32h24" transform="translate(340 290) rotate(-4 32 32) scale(0.7)" fill="none" stroke="#000000" stroke-width="4" stroke-linecap="round" stroke-linejoin="round" stroke-opacity="0.52"/>
  <path d="M32 5c9 7 18 8 25 8v18c0 15-10 24-25 29C17 55 7 46 7 31V13c8 0 17-1 25-8zM20 32l8 8 17-19" transform="translate(-20 415) rotate(-5 32 32) scale(0.72)" fill="none" stroke="#000000" stroke-width="4" stroke-linecap="round" stroke-linejoin="round" stroke-opacity="0.66"/>
  <path d="M32 5c9 7 18 8 25 8v18c0 15-10 24-25 29C17 55 7 46 7 31V13c8 0 17-1 25-8zM20 32l8 8 17-19" transform="translate(492 415) rotate(-5 32 32) scale(0.72)" fill="none" stroke="#000000" stroke-width="4" stroke-linecap="round" stroke-linejoin="round" stroke-opacity="0.66"/>
  <path d="M8 9h48v18H8zM8 37h48v18H8zM16 18h.1M16 46h.1M24 18h24M24 46h24" transform="translate(135 412) rotate(4 32 32) scale(0.72)" fill="none" stroke="#000000" stroke-width="4" stroke-linecap="round" stroke-linejoin="round" stroke-opacity="0.66"/>
  <path d="M11 17a7 7 0 1 0 0-14 7 7 0 0 0 0 14zM53 39a7 7 0 1 0 0-14 7 7 0 0 0 0 14zM15 53a7 7 0 1 0 0-14 7 7 0 0 0 0 14zM17 12l29 18M47 36 21 48M12 46l-1-29" transform="translate(278 410) rotate(-5 32 32) scale(0.76)" fill="none" stroke="#000000" stroke-width="4" stroke-linecap="round" stroke-linejoin="round" stroke-opacity="0.66"/>
  <path d="M24 42H16a12 12 0 0 1 0-24h14a12 12 0 0 1 9 4M40 22h8a12 12 0 0 1 0 24H34a12 12 0 0 1-9-4M20 32h24" transform="translate(420 415) rotate(6 32 32) scale(0.68)" fill="none" stroke="#000000" stroke-width="4" stroke-linecap="round" stroke-linejoin="round" stroke-opacity="0.66"/>
</svg>
