<?xml version="1.0" encoding="UTF-8"?>
<svg xmlns="http://www.w3.org/2000/svg" viewBox="0 0 512 512">
  <path d="M8 46a34 34 0 0 1 48 0M17 37a21 21 0 0 1 30 0M27 28a8 8 0 0 1 11 0M32 51h.1" transform="translate(32 25) rotate(-5 32 32) scale(0.8)" fill="none" stroke="#000000" stroke-width="4" stroke-linecap="round" stroke-linejoin="round" stroke-opacity="0.66"/>
  <path d="M32 5a27 27 0 1 0 0 54 27 27 0 0 0 0-54zM32 16v18l12 8" transform="translate(185 30) rotate(5 32 32) scale(0.72)" fill="none" stroke="#000000" stroke-width="4" stroke-linecap="round" stroke-linejoin="round" stroke-opacity="0.52"/>
  <path d="M11 17a7 7 0 1 0 0-14 7 7 0 0 0 0 14zM53 39a7 7 0 1 0 0-14 7 7 0 0 0 0 14zM15 53a7 7 0 1 0 0-14 7 7 0 0 0 0 14zM17 12l29 18M47 36 21 48M12 46l-1-29" transform="translate(330 28) rotate(-4 32 32) scale(0.75)" fill="none" stroke="#000000" stroke-width="4" stroke-linecap="round" stroke-linejoin="round" stroke-opacity="0.66"/>
  <path d="M8 46a34 34 0 0 1 48 0M17 37a21 21 0 0 1 30 0M27 28a8 8 0 0 1 11 0M32 51h.1" transform="translate(-24 155) rotate(5 32 32) scale(0.72)" fill="none" stroke="#000000" stroke-width="4" stroke-linecap="round" stroke-linejoin="round" stroke-opacity="0.66"/>
  <path d="M8 46a34 34 0 0 1 48 0M17 37a21 21 0 0 1 30 0M27 28a8 8 0 0 1 11 0M32 51h.1" transform="translate(488 155) rotate(5 32 32) scale(0.72)" fill="none" stroke="#000000" stroke-width="4" stroke-linecap="round" stroke-linejoin="round" stroke-opacity="0.66"/>
  <path d="M32 5a27 27 0 1 0 0 54 27 27 0 0 0 0-54zM32 16v18l12 8" transform="translate(120 148) rotate(-5 32 32) scale(0.78)" fill="none" stroke="#000000" stroke-width="4" stroke-linecap="round" stroke-linejoin="round" stroke-opacity="0.66"/>
  <path d="M8 46a34 34 0 0 1 48 0M17 37a21 21 0 0 1 30 0M27 28a8 8 0 0 1 11 0M32 51h.1" transform="translate(275 155) rotate(4 32 32) scale(0.72)" fill="none" stroke="#000000" stroke-width="4" stroke-linecap="round" stroke-linejoin="round" stroke-opacity="0.52"/>
  <path d="M11 17a7 7 0 1 0 0-14 7 7 0 0 0 0 14zM53 39a7 7 0 1 0 0-14 7 7 0 0 0 0 14zM15 53a7 7 0 1 0 0-14 7 7 0 0 0 0 14zM17 12l29 18M47 36 21 48M12 46l-1-29" transform="translate(415 150) rotate(-5 32 32) scale(0.7)" fill="none" stroke="#000000" stroke-width="4" stroke-linecap="round" stroke-linejoin="round" stroke-opacity="0.66"/>
  <path d="M32 5a27 27 0 1 0 0 54 27 27 0 0 0 0-54zM32 16v18l12 8" transform="translate(50 285) rotate(5 32 32) scale(0.76)" fill="none" stroke="#000000" stroke-width="4" stroke-linecap="round" stroke-linejoin="round" stroke-opacity="0.66"/>
  <path d="M8 46a34 34 0 0 1 48 0M17 37a21 21 0 0 1 30 0M27 28a8 8 0 0 1 11 0M32 51h.1" transform="translate(195 285) rotate(-4 32 32) scale(0.78)" fill="none" stroke="#000000" stroke-width="4" stroke-linecap="round" stroke-linejoin="round" stroke-opacity="0.66"/>
  <path d="M32 5a27 27 0 1 0 0 54 27 27 0 0 0 0-54zM32 16v18l12 8" transform="translate(350 290) rotate(5 32 32) scale(0.7)" fill="none" stroke="#000000" stroke-width="4" stroke-linecap="round" stroke-linejoin="round" stroke-opacity="0.52"/>
  <path d="M11 17a7 7 0 1 0 0-14 7 7 0 0 0 0 14zM53 39a7 7 0 1 0 0-14 7 7 0 0 0 0 14zM15 53a7 7 0 1 0 0-14 7 7 0 0 0 0 14zM17 12l29 18M47 36 21 48M12 46l-1-29" transform="translate(-20 418) rotate(-5 32 32) scale(0.72)" fill="none" stroke="#000000" stroke-width="4" stroke-linecap="round" stroke-linejoin="round" stroke-opacity="0.66"/>
  <path d="M11 17a7 7 0 1 0 0-14 7 7 0 0 0 0 14zM53 39a7 7 0 1 0 0-14 7 7 0 0 0 0 14zM15 53a7 7 0 1 0 0-14 7 7 0 0 0 0 14zM17 12l29 18M47 36 21 48M12 46l-1-29" transform="translate(492 418) rotate(-5 32 32) scale(0.72)" fill="none" stroke="#000000" stroke-width="4" stroke-linecap="round" stroke-linejoin="round" stroke-opacity="0.66"/>
  <path d="M8 46a34 34 0 0 1 48 0M17 37a21 21 0 0 1 30 0M27 28a8 8 0 0 1 11 0M32 51h.1" transform="translate(132 410) rotate(5 32 32) scale(0.75)" fill="none" stroke="#000000" stroke-width="4" stroke-linecap="round" stroke-linejoin="round" stroke-opacity="0.66"/>
  <path d="M32 5a27 27 0 1 0 0 54 27 27 0 0 0 0-54zM32 16v18l12 8" transform="translate(280 415) rotate(-5 32 32) scale(0.72)" fill="none" stroke="#000000" stroke-width="4" stroke-linecap="round" stroke-linejoin="round" stroke-opacity="0.66"/>
  <path d="M11 17a7 7 0 1 0 0-14 7 7 0 0 0 0 14zM53 39a7 7 0 1 0 0-14 7 7 0 0 0 0 14zM15 53a7 7 0 1 0 0-14 7 7 0 0 0 0 14zM17 12l29 18M47 36 21 48M12 46l-1-29" transform="translate(422 405) rotate(4 32 32) scale(0.7)" fill="none" stroke="#000000" stroke-width="4" stroke-linecap="round" stroke-linejoin="round" stroke-opacity="0.66"/>
</svg>
