<?xml version="1.0" encoding="UTF-8"?>
<svg xmlns="http://www.w3.org/2000/svg" viewBox="0 0 512 512">
  <path d="M5 8h54v48H5zM5 19h54M12 14h.1M20 14h.1M28 14h.1M13 30l9 8-9 8M27 46h16" transform="translate(30 22) rotate(-4 32 32) scale(0.82)" fill="none" stroke="#000000" stroke-width="4" stroke-linecap="round" stroke-linejoin="round" stroke-opacity="0.66"/>
  <path d="M11 14 31 32 11 50M34 50h22" transform="translate(185 35) rotate(5 32 32) scale(0.7)" fill="none" stroke="#000000" stroke-width="4" stroke-linecap="round" stroke-linejoin="round" stroke-opacity="0.66"/>
  <path d="M10 32h44" transform="translate(330 38) rotate(-5 32 32) scale(0.7)" fill="none" stroke="#000000" stroke-width="4" stroke-linecap="round" stroke-linejoin="round" stroke-opacity="0.5"/>
  <path d="M18 32h.1M32 32h.1M46 32h.1" transform="translate(330 38) rotate(-5 32 32) scale(0.7)" fill="none" stroke="#000000" stroke-width="4" stroke-linecap="round" stroke-linejoin="round" stroke-opacity="0.5"/>
  <path d="M11 14 31 32 11 50M34 50h22" transform="translate(-20 155) rotate(4 32 32) scale(0.78)" fill="none" stroke="#000000" stroke-width="4" stroke-linecap="round" stroke-linejoin="round" stroke-opacity="0.66"/>
  <path d="M11 14 31 32 11 50M34 50h22" transform="translate(492 155) rotate(4 32 32) scale(0.78)" fill="none" stroke="#000000" stroke-width="4" stroke-linecap="round" stroke-linejoin="round" stroke-opacity="0.66"/>
  <path d="M5 8h54v48H5zM5 19h54M12 14h.1M20 14h.1M28 14h.1M13 30l9 8-9 8M27 46h16" transform="translate(120 145) rotate(5 32 32) scale(0.72)" fill="none" stroke="#000000" stroke-width="4" stroke-linecap="round" stroke-linejoin="round" stroke-opacity="0.66"/>
  <path d="M11 14 31 32 11 50M34 50h22" transform="translate(280 160) rotate(-5 32 32) scale(0.8)" fill="none" stroke="#000000" stroke-width="4" stroke-linecap="round" stroke-linejoin="round" stroke-opacity="0.66"/>
  <path d="M5 8h54v48H5zM5 19h54M12 14h.1M20 14h.1M28 14h.1M13 30l9 8-9 8M27 46h16" transform="translate(405 145) rotate(-4 32 32) scale(0.68)" fill="none" stroke="#000000" stroke-width="4" stroke-linecap="round" stroke-linejoin="round" stroke-opacity="0.52"/>
  <path d="M10 32h44" transform="translate(45 300) rotate(6 32 32) scale(0.72)" fill="none" stroke="#000000" stroke-width="4" stroke-linecap="round" stroke-linejoin="round" stroke-opacity="0.66"/>
  <path d="M18 32h.1M32 32h.1M46 32h.1" transform="translate(45 300) rotate(6 32 32) scale(0.72)" fill="none" stroke="#000000" stroke-width="4" stroke-linecap="round" stroke-linejoin="round" stroke-opacity="0.66"/>
  <path d="M5 8h54v48H5zM5 19h54M12 14h.1M20 14h.1M28 14h.1M13 30l9 8-9 8M27 46h16" transform="translate(180 275) rotate(-5 32 32) scale(0.85)" fill="none" stroke="#000000" stroke-width="4" stroke-linecap="round" stroke-linejoin="round" stroke-opacity="0.66"/>
  <path d="M11 14 31 32 11 50M34 50h22" transform="translate(345 292) rotate(5 32 32) scale(0.72)" fill="none" stroke="#000000" stroke-width="4" stroke-linecap="round" stroke-linejoin="round" stroke-opacity="0.66"/>
  <path d="M5 8h54v48H5zM5 19h54M12 14h.1M20 14h.1M28 14h.1M13 30l9 8-9 8M27 46h16" transform="translate(-22 414) rotate(-4 32 32) scale(0.72)" fill="none" stroke="#000000" stroke-width="4" stroke-linecap="round" stroke-linejoin="round" stroke-opacity="0.66"/>
  <path d="M5 8h54v48H5zM5 19h54M12 14h.1M20 14h.1M28 14h.1M13 30l9 8-9 8M27 46h16" transform="translate(490 414) rotate(-4 32 32) scale(0.72)" fill="none" stroke="#000000" stroke-width="4" stroke-linecap="round" stroke-linejoin="round" stroke-opacity="0.66"/>
  <path d="M11 14 31 32 11 50M34 50h22" transform="translate(130 425) rotate(5 32 32) scale(0.74)" fill="none" stroke="#000000" stroke-width="4" stroke-linecap="round" stroke-linejoin="round" stroke-opacity="0.52"/>
  <path d="M10 32h44" transform="translate(280 420) rotate(-5 32 32) scale(0.72)" fill="none" stroke="#000000" stroke-width="4" stroke-linecap="round" stroke-linejoin="round" stroke-opacity="0.66"/>
  <path d="M18 32h.1M32 32h.1M46 32h.1" transform="translate(280 420) rotate(-5 32 32) scale(0.72)" fill="none" stroke="#000000" stroke-width="4" stroke-linecap="round" stroke-linejoin="round" stroke-opacity="0.66"/>
  <path d="M5 8h54v48H5zM5 19h54M12 14h.1M20 14h.1M28 14h.1M13 30l9 8-9 8M27 46h16" transform="translate(405 405) rotate(5 32 32) scale(0.7)" fill="none" stroke="#000000" stroke-width="4" stroke-linecap="round" stroke-linejoin="round" stroke-opacity="0.66"/>
</svg>
